# xmcd
#
# Track frame offsets:
#	150
#	11255
#	26255
#	36845
#	54160
#	67327
#	78875
#	94482
#	110237
#	124920
#	139315
#	158075
#
# Disc length: 2315 seconds
#
# Revision: 1970155325
# Processed by: cddbd v1.5.2PL0 Copyright (c) Steve Scherf et al.
# Submitted via: EZCDAudioConverter 9.1.1.1
#
DISCID=9e09090c
DTITLE=Various Artist - New Country 1996 (Vol 3) (#3)
DYEAR=1996
DGENRE=Country
TTITLE0=Mike Henderson - I Wouldn'T Lay My Guitar Down
TTITLE1=The Derailers - This Big City
TTITLE2=Rosie Flores - Wrong Side Of His Heart
TTITLE3=The Shivers - Cannonball
TTITLE4=Brent Lamb - No Excuses, No Regrets
TTITLE5=The Rarely Herd - Once Upon A Hreatbeat
TTITLE6=Front Range - The Hills That I Call Home
TTITLE7=Jerry Douglas - Pearlie Mae
TTITLE8=Richard Greene And The Grass Is Greener - Wolves A' Howlin'
TTITLE9=David Massengill - Fireball'S Last Ride
TTITLE10=Ed Pettersen - This Hard Land
TTITLE11=Steve Wariner - Hap Towne Breakdowne
EXTD=
EXTT0=
EXTT1=
EXTT2=
EXTT3=
EXTT4=
EXTT5=
EXTT6=
EXTT7=
EXTT8=
EXTT9=
EXTT10=
EXTT11=
PLAYORDER=
